<?xml version="1.0" encoding="utf-8"?>
<!-- Generator: Adobe Illustrator 24.0.0, SVG Export Plug-In . SVG Version: 6.00 Build 0)  -->
<svg version="1.1" id="Laag_1" xmlns="http://www.w3.org/2000/svg" xmlns:xlink="http://www.w3.org/1999/xlink" x="0px" y="0px"
	 viewBox="0 0 1242 2208" style="enable-background:new 0 0 1242 2208;" xml:space="preserve">
<style type="text/css">
	.st0{opacity:0.3;}
	.st1{fill:#00A98D;}
	.st2{fill:none;stroke:#00A98D;stroke-width:13.002;stroke-miterlimit:10;}
	.st3{fill:none;stroke:#EFBB00;stroke-width:10.4016;stroke-miterlimit:10;}
	.st4{fill:none;stroke:#FF6D7A;stroke-width:10.4016;stroke-miterlimit:10;}
</style>
<g class="st0">
	<path class="st1" d="M623.4,1138.6l56.4-5.5c3.4,18.9,10.3,32.8,20.6,41.7c10.4,8.9,24.4,13.3,42,13.3c18.7,0,32.7-3.9,42.2-11.8
		c9.5-7.9,14.2-17.1,14.2-27.7c0-6.8-2-12.6-6-17.3c-4-4.8-10.9-8.9-20.8-12.4c-6.8-2.3-22.2-6.5-46.4-12.5
		c-31.1-7.7-52.8-17.2-65.4-28.4c-17.6-15.8-26.4-35-26.4-57.7c0-14.6,4.1-28.3,12.4-41c8.3-12.7,20.2-22.4,35.8-29.1
		c15.6-6.7,34.4-10,56.5-10c36,0,63.1,7.9,81.3,23.7c18.2,15.8,27.8,36.9,28.7,63.2l-57.9,2.5c-2.5-14.7-7.8-25.3-15.9-31.8
		c-8.2-6.5-20.4-9.7-36.7-9.7c-16.8,0-30,3.5-39.5,10.4c-6.1,4.4-9.2,10.4-9.2,17.8c0,6.8,2.9,12.6,8.6,17.4
		c7.3,6.1,25,12.5,53.2,19.2c28.2,6.7,49,13.5,62.5,20.6c13.5,7.1,24.1,16.8,31.7,29.2s11.4,27.6,11.4,45.7
		c0,16.4-4.6,31.8-13.7,46.2c-9.1,14.4-22,25-38.7,32c-16.7,7-37.5,10.5-62.4,10.5c-36.3,0-64.1-8.4-83.6-25.1
		C638.8,1195.1,627.2,1170.7,623.4,1138.6z"/>
</g>
<g class="st0">
	<path class="st1" d="M320.6,1227.1V940.2h57.9v127.4l117-127.4h77.9l-108,111.7l113.9,175.1h-75l-78.9-134.6l-47,47.9v86.7H320.6z"
		/>
</g>
<g>
	<path class="st2" d="M305.9,1248.2V961.3h57.9v127.4l117-127.4h77.9l-108,111.7l113.9,175.1h-75l-78.9-134.6l-47,47.9v86.7H305.9z"
		/>
</g>
<g>
	<path class="st2" d="M605.7,1154.8l56.4-5.5c3.4,18.9,10.3,32.8,20.6,41.7c10.4,8.9,24.4,13.3,42,13.3c18.7,0,32.7-3.9,42.2-11.8
		c9.5-7.9,14.2-17.1,14.2-27.7c0-6.8-2-12.6-6-17.3c-4-4.8-10.9-8.9-20.8-12.4c-6.8-2.3-22.2-6.5-46.4-12.5
		c-31.1-7.7-52.8-17.2-65.4-28.4c-17.6-15.8-26.4-35-26.4-57.7c0-14.6,4.1-28.3,12.4-41c8.3-12.7,20.2-22.4,35.8-29.1
		c15.6-6.7,34.4-10,56.5-10c36,0,63.1,7.9,81.3,23.7c18.2,15.8,27.8,36.9,28.7,63.2l-57.9,2.5c-2.5-14.7-7.8-25.3-15.9-31.8
		c-8.2-6.5-20.4-9.7-36.7-9.7c-16.8,0-30,3.5-39.5,10.4c-6.1,4.4-9.2,10.4-9.2,17.8c0,6.8,2.9,12.6,8.6,17.4
		c7.3,6.1,25,12.5,53.2,19.2c28.2,6.7,49,13.5,62.5,20.6c13.5,7.1,24.1,16.8,31.7,29.2c7.6,12.3,11.4,27.6,11.4,45.7
		c0,16.4-4.6,31.8-13.7,46.2c-9.1,14.4-22,25-38.7,32c-16.7,7-37.5,10.5-62.4,10.5c-36.3,0-64.1-8.4-83.6-25.1
		C621.1,1211.3,609.5,1186.9,605.7,1154.8z"/>
</g>
<g>
	<path class="st3" d="M347.6,1265.8h-57.9V978.9"/>
</g>
<g>
	<path class="st4" d="M723.7,1104.5c19.3,0,19.3,31.2,38.6,31.2c19.3,0,19.3-31.2,38.6-31.2c19.3,0,19.3,31.2,38.6,31.2
		c19.3,0,19.3-31.2,38.6-31.2c19.3,0,19.3,31.2,38.6,31.2c19.3,0,19.3-31.2,38.6-31.2"/>
</g>
<g>
	<path class="st4" d="M723.7,1148c19.3,0,19.3,31.2,38.6,31.2c19.3,0,19.3-31.2,38.6-31.2c19.3,0,19.3,31.2,38.6,31.2
		c19.3,0,19.3-31.2,38.6-31.2c19.3,0,19.3,31.2,38.6,31.2c19.3,0,19.3-31.2,38.6-31.2"/>
</g>
<g>
	<path class="st4" d="M723.7,1191.5c19.3,0,19.3,31.2,38.6,31.2c19.3,0,19.3-31.2,38.6-31.2c19.3,0,19.3,31.2,38.6,31.2
		c19.3,0,19.3-31.2,38.6-31.2c19.3,0,19.3,31.2,38.6,31.2c19.3,0,19.3-31.2,38.6-31.2"/>
</g>
</svg>
